<svg xmlns="http://www.w3.org/2000/svg" width="60" height="72" viewBox="0 0 60 72"><path fill="#b4d3d2" d="M38.11 17.36v-3.39h.59c.49 0 .89-.4.89-.88v-1.97A4.14 4.14 0 0 0 35.45 7h-6.04a4.13 4.13 0 0 0-4.14 4.12v1.97c0 .48.39.88.88.88h.59v3.39a27.5 27.5 0 0 0-10.96 4.99l-2.02-2.02a1.83 1.83 0 0 0-2.58 0l-2.5 2.49a1.8 1.8 0 0 0 0 2.56l2 1.99a27.17 27.17 0 0 0-5.83 16.82 27.53 27.53 0 0 0 27.58 27.42c15.2 0 27.57-12.3 27.57-27.42a27.5 27.5 0 0 0-21.89-26.83zm-11.08-6.24c0-1.3 1.07-2.36 2.38-2.36h6.04a2.37 2.37 0 0 1 2.37 2.36v1.09H27.03zm1.48 2.91h7.83v3.02a28 28 0 0 0-7.83 0zM9.93 24.14l-.02-.04.02-.04 2.5-2.49a.06.06 0 0 1 .08 0l1.9 1.89c-.93.79-1.8 1.64-2.6 2.55z"/><path fill="#008781" d="M34.98 10.9V7.33h.62c.52 0 .93-.41.93-.92V4.33A4.34 4.34 0 0 0 32.18 0h-6.36a4.34 4.34 0 0 0-4.35 4.33v2.08c0 .51.41.92.93.92h.62v3.57a28.94 28.94 0 0 0-11.52 5.25l-2.14-2.12a1.93 1.93 0 0 0-2.7 0l-2.64 2.62a1.9 1.9 0 0 0 0 2.7l2.1 2.08A28.64 28.64 0 0 0 0 39.14C0 55.05 13 68 29 68c15.99 0 29-12.95 29-28.86A28.95 28.95 0 0 0 34.98 10.9zM23.33 4.33a2.49 2.49 0 0 1 2.49-2.48h6.36a2.49 2.49 0 0 1 2.49 2.48v1.15H23.33zm1.55 3.07h8.24v3.18a29.49 29.49 0 0 0-8.24 0zM5.34 18.04L5.32 18c0-.03.01-.04.02-.04l2.63-2.62c.02-.03.06-.03.08 0l2 1.98c-.98.83-1.89 1.73-2.74 2.69zM29 66.15A27.1 27.1 0 0 1 1.86 39.14 27.1 27.1 0 0 1 29 12.13a27.1 27.1 0 0 1 27.14 27.01A27.1 27.1 0 0 1 29 66.15zm0-49.51a22.58 22.58 0 0 0-22.61 22.5A22.58 22.58 0 0 0 29 61.64a22.58 22.58 0 0 0 22.61-22.5A22.58 22.58 0 0 0 29 16.64zm0 43.16A20.73 20.73 0 0 1 8.24 39.14 20.72 20.72 0 0 1 29 18.49a20.73 20.73 0 0 1 20.76 20.65A20.74 20.74 0 0 1 29 59.8zm.91-32.66a.93.93 0 0 0-1.82 0s-2.45 11.57-2.45 12a3.36 3.36 0 0 0 6.72 0c0-.43-2.45-12-2.45-12zm-.91 4.8l.81 3.96a3.1 3.1 0 0 0-1.62 0zm0 8.7a1.5 1.5 0 1 1 0-3 1.5 1.5 0 0 1 0 3zm0 12.83a.93.93 0 0 0-.93.92v3.58c0 .51.42.93.93.93s.93-.42.93-.93v-3.58a.93.93 0 0 0-.93-.92zm0-28.65c.51 0 .93-.42.93-.93v-3.58a.93.93 0 0 0-.93-.92.93.93 0 0 0-.93.92v3.58c0 .51.42.93.93.93zM17.5 49.27l-2.54 2.53a.92.92 0 0 0 .66 1.58c.24 0 .48-.09.66-.27l2.54-2.53a.93.93 0 0 0 0-1.31.93.93 0 0 0-1.31 0zm22.34-19.99a.9.9 0 0 0 .65-.27l2.55-2.53a.93.93 0 1 0-1.32-1.31l-2.52 2.51a.93.93 0 0 0 .64 1.6zm-26.17 8.94h-3.6a.92.92 0 1 0 0 1.85h3.6a.92.92 0 1 0 0-1.85zm34.25 0h-3.6a.93.93 0 0 0-.93.92c0 .51.42.93.93.93h3.6c.52 0 .93-.42.93-.93a.92.92 0 0 0-.93-.92zm-30.41-9.21a.9.9 0 0 0 .65.27c.52 0 .93-.41.93-.92 0-.26-.11-.5-.28-.67l-2.53-2.52a.93.93 0 0 0-1.32 0 .92.92 0 0 0 0 1.31zm22.98 20.26a.93.93 0 0 0-1.31 0 .91.91 0 0 0 0 1.31l2.54 2.53c.18.18.42.27.66.27a.93.93 0 0 0 .66-1.58z"/></svg>