<svg xmlns="http://www.w3.org/2000/svg" width="55" height="68" viewBox="0 0 55 68"><path fill="#b4d3d2" d="M19.8 31.38c0-.83-.68-1.51-1.5-1.51H6.26a1.51 1.51 0 0 0 0 3.02H18.3c.82 0 1.5-.68 1.5-1.51zm32.9-1.51H40.64a1.51 1.51 0 0 0 0 3.02H52.7a1.51 1.51 0 0 0 0-3.02zm-23.22-8.19c.82 0 1.5-.68 1.5-1.51V8.09a1.5 1.5 0 0 0-3 0v12.08c0 .83.67 1.51 1.5 1.51zm7.9 3.28c.38 0 .76-.15 1.06-.43l8.52-8.55c.59-.59.59-1.55 0-2.14a1.5 1.5 0 0 0-2.13 0l-8.52 8.55a1.52 1.52 0 0 0 0 2.14c.3.28.69.43 1.06.43zm-16.87-.43a1.53 1.53 0 0 0 2.13 0c.59-.59.59-1.55 0-2.14l-8.52-8.55a1.5 1.5 0 0 0-2.13 0 1.52 1.52 0 0 0 0 2.14zm27.01 16.35a6.22 6.22 0 0 0-4.04-1.52h-8.6v-6.08c0-2.92-.86-5.04-2.58-6.31-2.7-1.98-6.37-.86-6.53-.81a1.5 1.5 0 0 0-1.05 1.43v7.34c0 2.24-1.07 4.13-3.18 5.65-1.6 1.16-3.24 1.68-3.46 1.75l-.15.03a3.1 3.1 0 0 0-2.31-1.04h-5.7a3.1 3.1 0 0 0-3.1 3.1V63.2a3.11 3.11 0 0 0 3.1 3.11h5.72c.75 0 1.45-.28 1.98-.73a6.3 6.3 0 0 0 4.4 1.82h17.94c1.8 0 3.4-.44 4.61-1.26a6.64 6.64 0 0 0 2.8-4.86l2.3-14.43a6.52 6.52 0 0 0-2.15-5.97z"/><path fill="#008781" d="M15.82 26.09c0-.87-.7-1.58-1.58-1.58H1.58a1.58 1.58 0 0 0 0 3.17h12.66c.87 0 1.58-.71 1.58-1.59zm34.6-1.58H37.76a1.58 1.58 0 0 0 0 3.17h12.66a1.59 1.59 0 0 0 0-3.17zM26 15.88c.87 0 1.58-.71 1.58-1.59V1.58C27.58.71 26.87 0 26 0c-.87 0-1.58.71-1.58 1.58v12.71c0 .88.71 1.59 1.58 1.59zm8.3 3.46c.42 0 .81-.16 1.13-.46l8.96-9a1.58 1.58 0 1 0-2.24-2.24l-8.96 8.99a1.6 1.6 0 0 0 0 2.25c.31.3.72.46 1.12.46zm-17.73-.46a1.6 1.6 0 0 0 2.24 0 1.6 1.6 0 0 0 0-2.25L9.85 7.64A1.58 1.58 0 1 0 7.6 9.88zM44.98 36.1a6.5 6.5 0 0 0-4.25-1.6H31.7v-6.41c0-3.07-.91-5.3-2.71-6.63-2.85-2.09-6.7-.92-6.88-.86-.65.21-1.1.82-1.1 1.5v7.73c0 2.35-1.12 4.35-3.35 5.95a13.32 13.32 0 0 1-3.63 1.83l-.16.04a3.23 3.23 0 0 0-2.43-1.09h-6a3.26 3.26 0 0 0-3.26 3.26v19.77a3.27 3.27 0 0 0 3.25 3.26h6.03c.8 0 1.53-.29 2.08-.77A6.62 6.62 0 0 0 18.17 64h18.86c1.9 0 3.57-.46 4.85-1.32a7.02 7.02 0 0 0 2.93-5.11l2.44-15.2a6.83 6.83 0 0 0-2.27-6.27zM11.54 59.59c0 .05-.03.09-.09.09H5.42a.09.09 0 0 1-.09-.09V39.82c0-.05.04-.09.1-.09h6.02c.06 0 .1.04.1.09zm32.59-17.71L41.69 57.1l-.01.07c-.1.91-.45 3.67-4.65 3.67H18.17a3.5 3.5 0 0 1-3.43-2.94c0-.07-.02-.14-.04-.19V40.72l.1-.03.06-.01c.1-.03 2.33-.66 4.56-2.26 3.1-2.21 4.74-5.18 4.74-8.59v-6.42c.87-.09 2.06-.05 2.95.6.94.7 1.42 2.07 1.42 4.07v7.99c0 .87.7 1.58 1.58 1.58h10.62c.8 0 1.57.31 2.2.84.95.82 1.4 2.11 1.2 3.39z"/></svg>